<svg version="1.1" id="Layer_1" xmlns="http://www.w3.org/2000/svg" x="0" y="0" viewBox="0 0 72.1 52" xml:space="preserve"><style>.st0{fill:#09386f}.st2{opacity:.3;fill:#fff}</style><path class="st0" d="M21.4 42.3c-5.9 0-9-3.1-9.5-8.3-.1-1-.1-1.9-.1-3.2V1.7H1.1v27.5c0 2.2 0 3.6.1 6.1.6 8 6.2 15 20.2 15h1.1l3.1-8.7c-1.1.4-2.6.7-4.2.7zM30.9 1.7V27l9.2-25.3z"/><path d="M53.7 1.7H40.1L30.9 27v3.8c0 1.3 0 2.2-.1 3.2-.2 3.7-2 6.4-5.1 7.6l-3.1 8.7c5.7-.2 10-1.6 13-3.7l3.3-10h13.5l-2.7-8.7h-8l.2-.5L47 11.3l4.9 15.9 3.3 10.3 4.1 12.8h12L53.7 1.7z" fill="#64b246"/><path class="st2" d="M59.2 50.3H71L63.1 28zM46 13.6l3.7-11.9h-9.6l-2.4 6.6 4 19.1z"/></svg>